<?xml version="1.0" standalone="no"?>
<!DOCTYPE svg PUBLIC "-//W3C//DTD SVG 20010904//EN"
 "http://www.w3.org/TR/2001/REC-SVG-20010904/DTD/svg10.dtd">
<svg version="1.0" xmlns="http://www.w3.org/2000/svg"
 width="500.000000pt" height="500.000000pt" viewBox="0 0 500.000000 500.000000"
 preserveAspectRatio="xMidYMid meet">

<g transform="translate(0.000000,500.000000) scale(0.100000,-0.100000)"
fill="#000000" stroke="none">
<path d="M1145 4475 c-340 -63 -585 -266 -687 -570 -20 -62 -23 -89 -23 -230
0 -179 12 -245 70 -372 116 -253 316 -397 593 -426 41 -5 52 -3 52 8 0 11 -13
15 -48 15 -117 0 -248 58 -353 157 -85 80 -141 171 -181 295 -27 81 -31 112
-36 233 -7 219 34 381 137 537 147 222 366 338 641 340 123 1 197 -15 295 -62
172 -83 276 -207 336 -400 20 -62 24 -97 23 -200 0 -145 -13 -217 -59 -317
-70 -153 -194 -228 -409 -248 l-77 -7 3 338 c3 366 7 391 59 428 22 15 14 16
-141 16 -147 -1 -162 -2 -139 -15 54 -29 54 -26 57 -610 2 -297 0 -560 -3
-584 -5 -32 -16 -54 -40 -78 l-33 -33 165 0 166 0 -28 22 c-51 40 -59 75 -63
294 l-4 201 93 7 c406 30 611 227 611 586 0 58 -4 124 -10 148 -13 55 4 53 33
-4 19 -37 20 -62 23 -563 3 -588 1 -612 -54 -660 l-35 -31 168 0 167 0 -30 29
c-49 48 -54 83 -54 375 l0 266 310 0 310 0 0 -274 c0 -171 -4 -286 -11 -307
-6 -19 -25 -46 -42 -61 l-31 -28 318 0 318 0 -31 26 c-17 14 -35 42 -41 62 -6
23 -10 240 -10 579 0 594 1 607 59 638 23 13 -11 14 -294 14 -283 0 -317 -1
-294 -14 52 -28 59 -69 59 -355 l0 -260 -310 0 -310 0 0 246 c0 274 7 321 52
359 l30 25 -159 0 -159 0 -13 38 c-49 139 -210 295 -379 366 -155 65 -393 91
-557 61z m2089 -537 c15 -38 16 -107 14 -605 -3 -553 -3 -562 -24 -590 -27
-36 -51 -36 -78 0 -21 28 -21 37 -24 575 -2 301 0 567 3 591 8 55 46 97 74 82
11 -6 27 -30 35 -53z"/>
<path d="M3069 2550 c-240 -38 -446 -210 -530 -443 l-18 -52 -1 184 c0 204 8
249 53 287 l29 24 -162 0 -162 0 30 -25 c48 -40 53 -80 50 -392 l-3 -281 -60
45 c-126 96 -259 137 -444 138 l-123 0 4 205 c5 220 13 262 59 294 22 15 14
16 -135 16 l-159 0 26 -20 c41 -33 49 -78 54 -317 l5 -221 -43 -23 c-216 -109
-338 -296 -356 -540 -16 -228 91 -429 292 -551 142 -86 284 -122 485 -121 198
1 288 12 940 114 164 26 501 36 636 20 225 -28 437 -101 551 -191 39 -31 50
-24 17 11 -53 57 -187 151 -279 195 -155 75 -218 88 -455 88 -230 1 -277 -6
-589 -81 -472 -113 -594 -134 -791 -134 -254 -1 -433 61 -565 195 -117 119
-156 217 -156 392 0 240 85 428 242 535 47 32 60 37 65 25 3 -8 4 -143 2 -298
-4 -310 -8 -334 -64 -376 l-29 -21 169 -1 169 0 -28 22 c-56 44 -59 64 -63
415 -3 306 -3 323 15 330 10 5 74 8 143 8 95 0 138 -5 180 -19 75 -25 192 -88
246 -133 l45 -36 -3 -241 c-3 -264 -9 -293 -66 -328 -26 -17 -21 -17 141 -18
l169 0 -29 30 c-46 49 -51 80 -52 280 l0 185 26 -65 c106 -261 348 -430 618
-430 376 0 684 323 662 695 -10 173 -72 310 -196 436 -63 63 -92 84 -171 122
-52 24 -115 50 -140 55 -68 16 -188 22 -251 12z m186 -32 c111 -28 240 -149
310 -291 63 -128 87 -227 87 -357 0 -208 -65 -385 -186 -505 -91 -91 -137
-110 -266 -110 -96 0 -110 3 -165 29 -96 47 -191 151 -253 273 -70 141 -96
258 -89 401 6 127 24 198 78 310 47 97 137 195 211 231 81 39 170 45 273 19z"/>
</g>
</svg>
