<svg xmlns="http://www.w3.org/2000/svg" viewBox="0 0 60 60">
  <circle cx="30" cy="30" r="30" fill="#6DB33F"/>
  <!-- Leaf outline (Spring logo) -->
  <path fill="#FFFFFF" d="M30 8C18 8 8 18 8 30c0 7.7 4 14.5 10 18.5C16.5 46 15 43.1 15 40c0-8.3 6.7-15 15-15 2.3 0 4.5.5 6.4 1.5C39.5 23.6 44 17.3 44 10c0-.7 0-1.3-.1-2C41 8.3 38.6 8 36 8c-2 0-4 .3-6 .8V8z"/>
  <path fill="#FFFFFF" d="M30 27c-7.2 0-13 5.8-13 13 0 2.8.9 5.5 2.4 7.6C22.2 49 26 50 30 50s7.8-1 10.6-2.4C42.1 45.5 43 42.8 43 40c0-7.2-5.8-13-13-13z"/>
  <!-- Lightning bolt (Boot symbol) -->
  <path fill="#6DB33F" d="M32 32l-4 8h3l-1 6 5-9h-3z"/>
</svg>
